<?xml version="1.0" encoding="iso-8859-1"?>
<!-- Uploaded to: SVG Repo, www.svgrepo.com, Generator: SVG Repo Mixer Tools -->
<svg height="800px" width="800px" version="1.1" id="Layer_1" xmlns="http://www.w3.org/2000/svg" xmlns:xlink="http://www.w3.org/1999/xlink" 
	 viewBox="0 0 512 512" xml:space="preserve">
<g transform="translate(1 1)">
	<path style="fill:#FFFFFF;" d="M144.067,502.467H75.8c-9.387,0-17.067-7.68-17.067-17.067V24.6c0-9.387,7.68-17.067,17.067-17.067
		h68.267V502.467z"/>
	<path style="fill:#FFDD09;" d="M147.48,502.467H101.4c-9.387,0-17.067-7.68-17.067-17.067V24.6c0-9.387,7.68-17.067,17.067-17.067
		h45.227v494.933H147.48z"/>
	<path style="fill:#FD9808;" d="M468.333,502.467H144.067V7.533h324.267c9.387,0,17.067,7.68,17.067,17.067v460.8
		C485.4,494.787,477.72,502.467,468.333,502.467"/>
	<path style="fill:#FFDD09;" d="M442.733,502.467H144.067V7.533h298.667c9.387,0,17.067,7.68,17.067,17.067v460.8
		C459.8,494.787,452.12,502.467,442.733,502.467"/>
	<path style="fill:#1CD759;" d="M448.707,267.8c-10.24-19.627-49.493-42.667-49.493-42.667c-8.533-5.12-19.627-5.973-24.747,3.413
		c0,0-12.8,15.36-16.213,17.067c-14.507,10.24-28.16,9.387-41.813-4.267L291.693,216.6L267.8,192.707
		c-13.653-13.653-14.507-27.307-4.267-41.813c2.56-3.413,17.067-16.213,17.067-16.213c8.533-5.12,8.533-15.36,3.413-24.747
		c0,0-23.04-39.253-42.667-49.493c-8.533-4.267-18.773-2.56-25.6,4.267L201.24,79.213c-44.373,44.373-23.04,95.573,22.187,139.947
		l32.427,32.427l33.28,33.28c44.373,44.373,95.573,66.56,139.947,22.187l14.507-14.507
		C452.12,286.573,452.973,276.333,448.707,267.8"/>
	<path d="M377.027,340.333c-25.6,0-56.32-12.8-92.16-49.493l-65.707-65.707c-71.68-71.68-52.053-122.027-22.187-151.893
		l13.653-14.507c9.387-9.387,23.893-11.947,35.84-5.12c21.333,11.093,43.52,48.64,46.08,52.907c4.267,7.68,5.973,16.213,4.267,23.04
		c-1.707,5.12-5.12,9.387-9.387,12.8c-6.827,5.12-13.653,11.947-15.36,13.653c-7.68,11.947-6.827,20.48,3.413,30.72l47.787,47.787
		c10.24,10.24,19.627,11.093,31.573,3.413c1.707-0.853,8.533-8.533,13.653-15.36c2.56-5.12,7.68-8.533,12.8-9.387
		c6.827-1.707,15.36-0.853,23.04,4.267c4.267,2.56,41.813,24.747,52.907,46.08c5.973,11.947,4.267,26.453-5.12,35.84l-14.507,14.507
		C422.253,328.387,402.627,340.333,377.027,340.333z M231.96,67.267c-3.413,0-6.827,1.707-9.387,4.267L208.067,86.04
		c-34.987,34.987-27.307,78.507,22.187,128l65.707,65.707c23.04,23.04,45.227,37.547,65.707,42.667
		c23.04,5.12,43.52-1.707,62.293-20.48l14.507-14.507c4.267-4.267,5.12-10.24,2.56-15.36l0,0c-7.68-14.507-35.84-33.28-46.08-39.253
		c-3.413-1.707-7.68-2.56-10.24-2.56c-0.853,0-1.707,0.853-2.56,2.56l-0.853,1.707c-5.973,7.68-14.507,16.213-17.92,18.773
		c-18.773,12.8-36.693,11.093-52.907-5.12l-47.787-47.787c-16.213-16.213-17.92-34.133-5.12-52.907
		c2.56-3.413,11.947-11.093,18.773-17.92l1.707-0.853c1.707-0.853,2.56-1.707,2.56-2.56c0.853-2.56,0-5.973-2.56-10.24
		c-5.973-10.24-24.747-38.4-39.253-46.08C236.227,68.12,234.52,67.267,231.96,67.267z"/>
	<path d="M379.587,278.893h-0.853c-39.253-4.267-64.853-29.013-66.56-29.867c-3.413-3.413-3.413-8.533,0-11.947
		c3.413-3.413,8.533-3.413,11.947,0l0,0c0,0,23.04,22.187,56.32,25.6c4.267,0.853,7.68,4.267,7.68,9.387
		C387.267,275.48,383.853,278.893,379.587,278.893z"/>
	<path d="M272.92,205.507c-1.707,0-3.413-0.853-5.12-1.707c-1.707-0.853-32.427-27.307-36.693-66.56
		c-0.853-4.267,2.56-8.533,7.68-9.387s8.533,2.56,9.387,7.68c3.413,33.28,29.867,55.467,30.72,55.467
		c3.413,3.413,4.267,8.533,0.853,11.947C278.04,204.653,275.48,205.507,272.92,205.507z"/>
	<path d="M468.333,511H144.067c-5.12,0-8.533-3.413-8.533-8.533V7.533c0-5.12,3.413-8.533,8.533-8.533h324.267
		c14.507,0,25.6,11.093,25.6,25.6v460.8C493.933,499.907,482.84,511,468.333,511z M152.6,493.933h315.733
		c5.12,0,8.533-3.413,8.533-8.533V24.6c0-5.12-3.413-8.533-8.533-8.533H152.6V493.933z"/>
	<path d="M144.067,511H75.8c-14.507,0-25.6-11.093-25.6-25.6V24.6C50.2,10.093,61.293-1,75.8-1h68.267
		c5.12,0,8.533,3.413,8.533,8.533v494.933C152.6,507.587,149.187,511,144.067,511z M75.8,16.067c-4.267,0-8.533,3.413-8.533,8.533
		v460.8c0,5.12,3.413,8.533,8.533,8.533h59.733V16.067H75.8z"/>
	<path d="M58.733,109.933c-23.893,0-42.667-18.773-42.667-42.667S34.84,24.6,58.733,24.6S101.4,43.373,101.4,67.267
		c0,5.12-3.413,8.533-8.533,8.533s-8.533-3.413-8.533-8.533c0-14.507-11.093-25.6-25.6-25.6s-25.6,11.093-25.6,25.6
		s11.093,25.6,25.6,25.6c5.12,0,8.533,3.413,8.533,8.533C67.267,106.52,63.853,109.933,58.733,109.933z"/>
	<path d="M58.733,203.8c-23.893,0-42.667-18.773-42.667-42.667s18.773-42.667,42.667-42.667S101.4,137.24,101.4,161.133
		c0,5.12-3.413,8.533-8.533,8.533s-8.533-3.413-8.533-8.533c0-14.507-11.093-25.6-25.6-25.6s-25.6,11.093-25.6,25.6
		c0,14.507,11.093,25.6,25.6,25.6c5.12,0,8.533,3.413,8.533,8.533C67.267,200.387,63.853,203.8,58.733,203.8z"/>
	<path d="M58.733,297.667c-23.893,0-42.667-18.773-42.667-42.667s18.773-42.667,42.667-42.667S101.4,231.107,101.4,255
		c0,5.12-3.413,8.533-8.533,8.533s-8.533-3.413-8.533-8.533c0-14.507-11.093-25.6-25.6-25.6s-25.6,11.093-25.6,25.6
		c0,14.507,11.093,25.6,25.6,25.6c5.12,0,8.533,3.413,8.533,8.533C67.267,294.253,63.853,297.667,58.733,297.667z"/>
	<path d="M58.733,391.533c-23.893,0-42.667-18.773-42.667-42.667c0-23.893,18.773-42.667,42.667-42.667s42.667,18.773,42.667,42.667
		c0,5.12-3.413,8.533-8.533,8.533s-8.533-3.413-8.533-8.533c0-14.507-11.093-25.6-25.6-25.6s-25.6,11.093-25.6,25.6
		c0,14.507,11.093,25.6,25.6,25.6c5.12,0,8.533,3.413,8.533,8.533C67.267,388.12,63.853,391.533,58.733,391.533z"/>
	<path d="M58.733,485.4c-23.893,0-42.667-18.773-42.667-42.667c0-23.893,18.773-42.667,42.667-42.667S101.4,418.84,101.4,442.733
		c0,5.12-3.413,8.533-8.533,8.533s-8.533-3.413-8.533-8.533c0-14.507-11.093-25.6-25.6-25.6s-25.6,11.093-25.6,25.6
		c0,14.507,11.093,25.6,25.6,25.6c5.12,0,8.533,3.413,8.533,8.533C67.267,481.987,63.853,485.4,58.733,485.4z"/>
	<path d="M263.533,391.533h-68.267c-5.12,0-8.533-3.413-8.533-8.533c0-5.12,3.413-8.533,8.533-8.533h68.267
		c5.12,0,8.533,3.413,8.533,8.533C272.067,388.12,268.653,391.533,263.533,391.533z"/>
	<path d="M434.2,391.533H297.667c-5.12,0-8.533-3.413-8.533-8.533c0-5.12,3.413-8.533,8.533-8.533H434.2
		c5.12,0,8.533,3.413,8.533,8.533C442.733,388.12,439.32,391.533,434.2,391.533z"/>
	<path d="M434.2,425.667h-42.667c-5.12,0-8.533-3.413-8.533-8.533s3.413-8.533,8.533-8.533H434.2c5.12,0,8.533,3.413,8.533,8.533
		S439.32,425.667,434.2,425.667z"/>
	<path d="M357.4,425.667H255c-5.12,0-8.533-3.413-8.533-8.533S249.88,408.6,255,408.6h102.4c5.12,0,8.533,3.413,8.533,8.533
		S362.52,425.667,357.4,425.667z"/>
	<path d="M434.2,459.8h-85.333c-5.12,0-8.533-3.413-8.533-8.533s3.413-8.533,8.533-8.533H434.2c5.12,0,8.533,3.413,8.533,8.533
		S439.32,459.8,434.2,459.8z"/>
	<path d="M314.733,459.8H195.267c-5.12,0-8.533-3.413-8.533-8.533s3.413-8.533,8.533-8.533h119.467c5.12,0,8.533,3.413,8.533,8.533
		S319.853,459.8,314.733,459.8z"/>
	<path d="M220.867,425.667h-25.6c-5.12,0-8.533-3.413-8.533-8.533s3.413-8.533,8.533-8.533h25.6c5.12,0,8.533,3.413,8.533,8.533
		S225.987,425.667,220.867,425.667z"/>
</g>
</svg>